<?xml version="1.0" encoding="UTF-8" standalone="no"?>
<!-- Created with Inkscape (http://www.inkscape.org/) -->

<svg xmlns:dc="http://purl.org/dc/elements/1.1/" xmlns:cc="http://creativecommons.org/ns#" xmlns:rdf="http://www.w3.org/1999/02/22-rdf-syntax-ns#" xmlns:svg="http://www.w3.org/2000/svg" xmlns="http://www.w3.org/2000/svg" xmlns:xlink="http://www.w3.org/1999/xlink" xmlns:sodipodi="http://sodipodi.sourceforge.net/DTD/sodipodi-0.dtd" xmlns:inkscape="http://www.inkscape.org/namespaces/inkscape" width="715.799987793pt" height="217.200012207pt" viewBox="0 0 252.518336162 76.6233370273" version="1.1" id="svg8" inkscape:version="0.92.5 (2060ec1f9f, 2020-04-08)" sodipodi:docname="drawings.svg">
<defs id="defs2">
<linearGradient inkscape:collect="always" id="linearGradient1758">
<stop style="stop-color:#ffffff;stop-opacity:1" offset="0" id="stop1754" />
<stop style="stop-color:#ffffff;stop-opacity:0" offset="1" id="stop1756" />
</linearGradient>
<filter style="color-interpolation-filters:sRGB" inkscape:label="Invert" id="filter1098">
<feColorMatrix type="hueRotate" values="180" result="color1" id="feColorMatrix1094" />
<feColorMatrix values="-1 0 0 0 1 0 -1 0 0 1 0 0 -1 0 1 -0.21 -0.72 -0.07 1 0 " result="color2" id="feColorMatrix1096" />
</filter>
<filter style="color-interpolation-filters:sRGB" inkscape:label="Invert" id="filter1104">
<feColorMatrix type="hueRotate" values="180" result="color1" id="feColorMatrix1100" />
<feColorMatrix values="-1 0 0 0 1 0 -1 0 0 1 0 0 -1 0 1 -0.21 -0.72 -0.07 1 0 " result="color2" id="feColorMatrix1102" />
</filter>
<filter style="color-interpolation-filters:sRGB" inkscape:label="Invert" id="filter1104-0">
<feColorMatrix type="hueRotate" values="180" result="color1" id="feColorMatrix1100-0" />
<feColorMatrix values="-1 0 0 0 1 0 -1 0 0 1 0 0 -1 0 1 -0.21 -0.72 -0.07 1 0 " result="color2" id="feColorMatrix1102-2" />
</filter>
<filter style="color-interpolation-filters:sRGB" inkscape:label="Invert" id="filter1098-1">
<feColorMatrix type="hueRotate" values="180" result="color1" id="feColorMatrix1094-5" />
<feColorMatrix values="-1 0 0 0 1 0 -1 0 0 1 0 0 -1 0 1 -0.21 -0.72 -0.07 1 0 " result="color2" id="feColorMatrix1096-5" />
</filter>
<linearGradient inkscape:collect="always" xlink:href="#linearGradient1758" id="linearGradient1762" x1="70.0813369751" y1="40.9042663574" x2="70.3882141113" y2="51.1415939331" gradientUnits="userSpaceOnUse" />
<clipPath clipPathUnits="userSpaceOnUse" id="clipPath1937">
<rect style="opacity:1;fill:#fdbe11;fill-opacity:1;stroke:none;stroke-width:0.1763888896;stroke-linecap:butt;stroke-linejoin:round;stroke-miterlimit:4;stroke-dasharray:none;stroke-dashoffset:0;stroke-opacity:1;paint-order:markers fill stroke" id="rect1939" width="10.4315834045" height="12.5400953293" x="522.688903809" y="85.4830169678" rx="4.89577036405e-17" ry="4.89577036405e-17" />
</clipPath>
</defs>
<sodipodi:namedview id="base" pagecolor="#000000" bordercolor="#666666" borderopacity="1.0" inkscape:pageopacity="0" inkscape:pageshadow="2" inkscape:zoom="1.25" inkscape:cx="434.161756648" inkscape:cy="150.8551837" inkscape:document-units="pt" inkscape:current-layer="layer1" showgrid="false" units="pt" inkscape:snap-bbox="true" inkscape:snap-bbox-edge-midpoints="true" inkscape:snap-object-midpoints="false" inkscape:snap-center="false" inkscape:snap-smooth-nodes="false" inkscape:snap-intersection-paths="false" inkscape:object-paths="true" inkscape:snap-midpoints="false" inkscape:object-nodes="false" inkscape:snap-global="false" fit-margin-top="0" fit-margin-left="0" fit-margin-right="0" fit-margin-bottom="0" />
<metadata id="metadata5">
<rdf:RDF>
<cc:Work rdf:about="">
<dc:format>image/svg+xml</dc:format>
<dc:type rdf:resource="http://purl.org/dc/dcmitype/StillImage" />
<dc:title></dc:title>
</cc:Work>
</rdf:RDF>
</metadata>
<g inkscape:label="Layer 1" inkscape:groupmode="layer" id="layer1" transform="translate(96.5199966431,-186.086669922)">
<rect style="fill:#131313;stroke-width:0.1763888896;stroke-linejoin:round;paint-order:markers fill stroke" id="rect2466" width="252.518341064" height="76.623336792" x="-96.5199966431" y="186.086669922" rx="4.89577036405e-17" ry="4.89577036405e-17" />
<path style="fill:#ffffff;stroke-width:0.1763888896;stroke-linejoin:round;paint-order:markers fill stroke" d="m 47.2654895515,207.292490323 a 19.2623119339,19.2623119339 0 0 1 0.059073008,0.177219025 19.2623119339,19.2623119339 0 0 1 0.5405737518,1.627517097 19.2623119339,19.2623119339 0 0 1 0.4217589848,1.878744569 19.2623119339,19.2623119339 0 0 1 0.2320566084,1.911290453 19.2623119339,19.2623119339 0 0 1 0.048150074,1.362691688 19.2623119339,19.2623119339 0 0 1 -0.096077232,1.922882137 19.2623119339,19.2623119339 0 0 1 -0.2619274879,1.733179761 19.2623119339,19.2623119339 0 0 1 -0.025858373,0.170754431 19.2623119339,19.2623119339 0 0 1 -0.28265877,1.106782959 c -0.050839272,-0.03106961 -0.1026566722,-0.06050961 -0.1553731567,-0.08827514 -0.083436176,-0.04199321 -0.1689201467,-0.0797877 -0.2561316456,-0.113241841 -0.087212472,-0.03347246 -0.1760443973,-0.0625623 -0.2661629113,-0.08716055 -0.090112714,-0.02460959 -0.1813997852,-0.04469722 -0.2735191724,-0.06018759 -0.092132867,-0.01548006 -0.1849823383,-0.02634226 -0.2782004298,-0.03254588 -0.093195276,-0.0061518 -0.1866398705,-0.0076398 -0.2799837659,-0.0044583 -0.093362726,0.0031446 -0.1865097698,0.01095641 -0.2790920977,0.02340629 -0.092560925,0.01241714 -0.1844431289,0.02945441 -0.2753025087,0.051048 a 2.80179405052,2.80179405052 0 0 0 -0.1912627954,0.05260841 c -0.089097241,0.02800041 -0.1767387363,0.06043817 -0.2625962391,0.09719182 -0.08589048,0.03679441 -0.1698865505,0.07786247 -0.2516733054,0.12305019 -0.081764492,0.04511772 -0.1612221323,0.09429515 -0.2380753678,0.147348145 -0.076879922,0.05310242 -0.1510553647,0.110017375 -0.22224826,0.170531513 -0.071217473,0.06045875 -0.1393665952,0.124441556 -0.204191982,0.19170863 a 2.80179405052,2.80179405052 0 0 0 -0.069104273,0.07935846 11.9076254347,11.9076254347 0 0 1 -0.3379421887,-0.314758819 11.9076254347,11.9076254347 0 0 1 -0.7855595468,-0.894120132 11.9076254347,11.9076254347 0 0 1 -0.6905969002,-0.965453574 11.9076254347,11.9076254347 0 0 1 -0.00178334,-0.0028979 11.9076254347,11.9076254347 0 0 1 -0.5922904982,-1.032328678 11.9076254347,11.9076254347 0 0 1 -0.4852903331,-1.084268341 11.9076254347,11.9076254347 0 0 1 -8.916692e-4,-0.0022292 11.9076254347,11.9076254347 0 0 1 -0.3753922466,-1.129520495 11.9076254347,11.9076254347 0 0 1 -0.2605899859,-1.161397628 11.9076254347,11.9076254347 0 0 1 -0.1433356381,-1.181460158 11.9076254347,11.9076254347 0 0 1 -0.02987088,-0.842403385 11.9076254347,11.9076254347 0 0 1 0.059518842,-1.188593503 11.9076254347,11.9076254347 0 0 1 0,-2.22917e-4 11.9076254347,11.9076254347 0 0 1 0.1119043396,-0.739638643 11.9076254347,11.9076254347 0 0 1 0.065983435,-0.437140259 11.9076254347,11.9076254347 0 0 1 0.2933587864,-1.149360109 c 4.096555e-4,-0.0013261 7.04463e-4,-0.0026866 0.00111459,-0.0040125 a 11.9076254347,11.9076254347 0 0 1 0.03878756,-0.10655433 11.9076254347,11.9076254347 0 0 0 -0.1901482104,0.310300479 c -0.1902961443,0.348409877 -0.3630496596,0.706118275 -0.5176132996,1.071784989 a 11.9076254347,11.9076254347 0 0 0 -0.039902145,0.109006418 c -0.1378651311,0.330597511 -0.2607430571,0.667247325 -0.3682589021,1.008922392 -0.1173249777,0.379307767 -0.2156055385,0.764246162 -0.2944733716,1.153372615 -0.078881313,0.389122918 -0.1382514019,0.781947563 -0.1778877748,1.177001819 -0.03963817,0.39495815 -0.059502588,0.791651284 -0.059518842,1.188593502 0.00175456,0.217812384 0.00948525,0.435535621 0.023183369,0.652923925 a 11.9076254347,11.9076254347 0 0 0 0.00668751,0.18947946 c 0.028048554,0.396037622 0.075886855,0.790424617 0.143335638,1.181683075 0.067528974,0.391163489 0.1545752956,0.778705618 0.2608129029,1.16117471 0.105652504,0.380832455 0.2301853191,0.756171791 0.3731630765,1.124616322 a 11.9076254347,11.9076254347 0 0 0 0.00200625,0.0051271 c 0.1438533744,0.369968855 0.3061166482,0.732513071 0.4861820011,1.086274595 0.1793347088,0.352354153 0.376138377,0.695539568 0.5896154942,1.028316172 a 11.9076254347,11.9076254347 0 0 0 0.002675,0.0042355 c 0.2145106784,0.334049546 0.445592689,0.657162606 0.6923802363,0.968128579 0.2458969177,0.309912034 0.5071541676,0.607311999 0.7826616256,0.89122221 a 11.9076254347,11.9076254347 0 0 0 0.00289793,0.0031209 c 0.2679186825,0.274903448 0.5489737078,0.536690805 0.8421804676,0.784444962 a 19.2623119339,19.2623119339 0 0 1 0.2864483592,1.542139882 19.2623119339,19.2623119339 0 0 1 0.160723165,1.918646714 19.2623119339,19.2623119339 0 0 1 -0.00490417,0.298931712 19.2623119339,19.2623119339 0 0 1 -0.00713335,0.428000661 19.2623119339,19.2623119339 0 0 1 -0.016272941,0.997776541 19.2623119339,19.2623119339 0 0 1 0,2.22917e-4 18.9049415219,18.9049415219 0 0 1 -0.8798534425,1.649808799 c -0.00840914,0.01406981 -0.017191939,0.02786419 -0.025635457,0.0419084 a 18.9049415219,18.9049415219 0 0 1 -1.0160557363,1.517841929 c -0.013978026,0.01884965 -0.028086841,0.03760558 -0.042131315,0.056398 a 18.9049415219,18.9049415219 0 0 1 -1.1547101171,1.399472996 c -0.01560871,0.0171665 -0.030920432,0.03461069 -0.046589655,0.05171675 a 18.9049415219,18.9049415219 0 0 1 -1.3140957785,1.302281178 c -0.00332438,0.002983 -0.0064819,0.0061591 -0.00980835,0.0091396 a 18.9049415219,18.9049415219 0 0 1 -1.4460626506,1.17165181 c -0.015556529,0.01139488 -0.031444124,0.02231315 -0.04703549,0.03366047 a 18.9049415219,18.9049415219 0 0 1 -1.5194023471,0.997330707 c -0.02211949,0.0130502 -0.044254601,0.02604922 -0.06642927,0.03901048 a 18.9049415219,18.9049415219 0 0 1 -1.6105754047,0.840620048 c -0.017809127,0.008228 -0.035439805,0.01679299 -0.053277166,0.0249667 a 18.9049415219,18.9049415219 0 0 1 -3.5218658573,1.209993536 c -0.022433199,0.005304 -0.045082808,0.0099344 -0.067543854,0.01515835 a 18.9049415219,18.9049415219 0 0 1 -1.5724565958,0.298262961 19.2623119339,19.2623119339 0 0 0 0.4757049016,0.07200219 c 0.6389548434,0.06413242 1.2807169407,0.09627261 1.9228821371,0.09630015 7.42873e-5,4e-9 1.486296e-4,-10e-10 2.229169e-4,0 0.4546591017,-3.709e-5 0.9091743618,-0.01617153 1.3626916885,-0.04837299 0.640566718,-0.04544406 1.2784601547,-0.122892983 1.9112904525,-0.232056608 0.6328129725,-0.109092609 1.2597595893,-0.249818714 1.878521652,-0.421536067 a 19.2623119339,19.2623119339 0 0 0 2.22917e-4,0 c 0.4552138849,-0.132840522 0.9053671201,-0.282445463 1.3495395847,-0.448509027 a 19.2623119339,19.2623119339 0 0 0 0.4777111547,-0.158716912 c 0.4643228471,-0.186474271 0.9212034537,-0.390969985 1.3696021158,-0.613021781 a 19.2623119339,19.2623119339 0 0 0 0.3876526821,-0.173429434 c 0.2947561535,-0.158989902 0.5853157955,-0.325639868 0.8713825961,-0.499779939 0.2699265131,-0.146382642 0.5363141708,-0.299198776 0.7989345676,-0.458317374 0.5404147024,-0.34696922 1.0631392055,-0.720747743 1.5662149194,-1.119935064 0.5030114786,-0.399204155 0.9856382856,-0.823425583 1.4462855676,-1.270849879 a 19.2623119339,19.2623119339 0 0 0 2.22917e-4,0 c 0.2907981384,-0.292717407 0.5721159354,-0.594702843 0.8435179698,-0.905488899 a 7.35470953687,7.35470953687 0 0 1 0.01270627,6.68754e-4 7.35470953687,7.35470953687 0 0 1 0.7267094558,0.109898086 c 7.17105e-5,1.4538e-5 1.512071e-4,-1.4539e-5 2.229171e-4,0 a 7.35470953687,7.35470953687 0 0 1 0.7122198502,0.181900281 c 6.83339e-5,2.1136e-5 1.545836e-4,-2.1137e-5 2.22917e-4,0 a 7.35470953687,7.35470953687 0 0 1 0.3296942593,0.120375186 7.35470953687,7.35470953687 0 0 1 0.3609026409,0.131743954 7.35470953687,7.35470953687 0 0 1 0.6618406057,0.31988591 7.35470953687,7.35470953687 0 0 1 0.626842635,0.38408601 7.35470953687,7.35470953687 0 0 1 0.5851571539,0.444942354 7.35470953687,7.35470953687 0 0 1 0.5378987477,0.501117442 7.35470953687,7.35470953687 0 0 1 0.4852903329,0.552388353 7.35470953687,7.35470953687 0 0 1 0.4275548272,0.597863423 7.35470953687,7.35470953687 0 0 1 0.3658068152,0.637765569 7.35470953687,7.35470953687 0 0 1 0.3002692138,0.670980203 7.35470953687,7.35470953687 0 0 1 0.2318336914,0.697730245 7.35470953687,7.35470953687 0 0 1 0.161168999,0.717346941 7.35470953687,7.35470953687 0 0 1 0.088498053,0.729830294 7.35470953687,7.35470953687 0 0 1 0.018502111,0.520288303 7.35470953687,7.35470953687 0 0 1 -0.036781307,0.734065718 7.35470953687,7.35470953687 0 0 1 -0.1098980864,0.726932373 7.35470953687,7.35470953687 0 0 1 -0.030316714,0.118814767 7.35470953687,7.35470953687 0 0 0 0.049933411,-0.04391465 c 0.1759014446,-0.17083388 0.3431494721,-0.350357676 0.5011174408,-0.537898747 0.1579752874,-0.187513774 0.306474846,-0.382810038 0.444942354,-0.585157154 0.1384166044,-0.202325632 0.266554071,-0.411489529 0.38408601,-0.626619719 a 7.35470953687,7.35470953687 0 0 0 2.22917e-4,-2.22917e-4 c 0.1175248593,-0.21522079 0.2242124503,-0.436184628 0.3196629938,-0.662063522 0.095499738,-0.225852083 0.1796445486,-0.45633893 0.2521191395,-0.690596901 0.072466986,-0.234226249 0.133176219,-0.471929681 0.181900281,-0.71221985 0.048728318,-0.240327185 0.085406826,-0.482941014 0.1098980865,-0.726932373 0.024479365,-0.243848761 0.036755129,-0.488768595 0.036781307,-0.7338428 7.9e-9,-7.4306e-5 -5.8e-9,-1.4861e-4 0,-2.22917e-4 a 7.35470953687,7.35470953687 0 0 0 0,-2.22917e-4 c -3.05079e-5,-0.173519111 -0.00620174,-0.346982796 -0.018502112,-0.520065387 -0.017314338,-0.244599947 -0.04685058,-0.488180944 -0.088498053,-0.729830294 -0.041656619,-0.241649183 -0.095372401,-0.481063862 -0.160946082,-0.717346941 -0.065578444,-0.236228999 -0.1430035951,-0.469003842 -0.2318336914,-0.697507328 a 7.35470953687,7.35470953687 0 0 0 0,-2.22917e-4 c -0.08891563,-0.228529657 -0.1892049412,-0.452469438 -0.3004921308,-0.670980203 -0.1111979767,-0.218497521 -0.2333546316,-0.431235753 -0.3658068152,-0.637542652 a 7.35470953687,7.35470953687 0 0 0 0,-2.22917e-4 c -0.1324647948,-0.206289178 -0.2751612187,-0.405826097 -0.4275548272,-0.597863424 -0.15238003,-0.192100146 -0.314271348,-0.376459835 -0.4850674159,-0.552388353 -0.170906234,-0.175907106 -0.3505045273,-0.343155228 -0.5381216647,-0.501117441 -0.1875137732,-0.157975287 -0.3828100369,-0.306474846 -0.5851571539,-0.444942354 -0.2023369047,-0.13846756 -0.4114712856,-0.266730695 -0.626619718,-0.384308926 -0.2152207897,-0.11752486 -0.4361846288,-0.22421245 -0.6620635228,-0.319662995 -0.225852083,-0.09549974 -0.4563389294,-0.179644548 -0.6905969002,-0.252119139 -0.2020013466,-0.06093158 -0.4065311325,-0.113142456 -0.6130217803,-0.156487742 a 19.2623119339,19.2623119339 0 0 0 0.01270627,-0.05795842 c 0.041086523,-0.292826605 0.075424843,-0.586560465 0.1029876591,-0.880968028 0.049461495,-0.342666055 0.089675473,-0.686603346 0.120598103,-1.03143701 0.025064909,-0.471323336 0.03279792,-0.943408698 0.023183369,-1.415300103 a 19.2623119339,19.2623119339 0 0 0 0.00847084,-0.509811204 c -0.02162186,-0.641832725 -0.075357295,-1.282178967 -0.160946082,-1.918646714 a 19.2623119339,19.2623119339 0 0 0 0,-2.22917e-4 19.2623119339,19.2623119339 0 0 0 -0.043022983,-0.232056608 19.2623119339,19.2623119339 0 0 0 -0.1116814225,-0.60187593 11.9076254347,11.9076254347 0 0 0 0.144450223,-0.235623281 c 0.1903249295,-0.348319562 0.3630060191,-0.705985012 0.5176132996,-1.071562072 a 11.9076254347,11.9076254347 0 0 0 2.229171e-4,-2.22917e-4 c 0.1543346743,-0.365030538 0.2903055875,-0.73755194 0.4074922962,-1.116145474 1.875211e-4,-6.05822e-4 4.813277e-4,-0.0011775 6.687497e-4,-0.0017833 a 11.9076254347,11.9076254347 0 0 0 0,-2.22917e-4 c 0.1173177913,-0.379234487 0.215598307,-0.764098308 0.2944733715,-1.153149698 0.078822663,-0.388833595 0.13825155,-0.781352942 0.1778877749,-1.17611015 2.21193e-5,-2.20298e-4 -2.21072e-5,-4.48453e-4 0,-6.6875e-4 a 11.9076254347,11.9076254347 0 0 0 0,-2.22917e-4 c 0.039571148,-0.395035861 0.059361175,-0.79180357 0.059295925,-1.18881642 5.70646e-5,-0.2809887 -0.00983178,-0.561891381 -0.029647963,-0.842180468 -0.018642429,-0.192694892 -0.04198135,-0.384906495 -0.069995942,-0.57646339 -0.019351434,-0.202334671 -0.043880344,-0.404140695 -0.073562613,-0.605219685 -0.067448236,-0.391234579 -0.1544201906,-0.778851245 -0.2605899859,-1.161397627 -0.106223234,-0.382529262 -0.2315104615,-0.759506924 -0.3753922466,-1.129520495 -0.1438223649,-0.369982276 -0.3061460912,-0.732496753 -0.486182001,-1.086274595 a 11.9076254347,11.9076254347 0 0 0 0,-2.22917e-4 c -0.1800990375,-0.353767321 -0.3777760555,-0.698307128 -0.5922904984,-1.032328779 -0.2144726974,-0.334076032 -0.4456277466,-0.657132624 -0.6923802362,-0.968128579 a 11.9076254347,11.9076254347 0 0 0 0,-2.22917e-4 c -0.2467853154,-0.310948271 -0.5089659087,-0.609360972 -0.7855595469,-0.894120131 a 11.9076254347,11.9076254347 0 0 0 -0.076014701,-0.07066469 19.2623119339,19.2623119339 0 0 0 -0.2304961894,-0.322560915 19.2623119339,19.2623119339 0 0 0 -0.072225101,-0.0820336 z m -1.8780758179,5.000251475 a 2.80179405052,2.80179405052 0 0 0 -0.1981732229,0.0069104 c -0.093236884,0.0065728 -0.1860864639,0.01780693 -0.2782004297,0.03366047 -0.090627953,0.01578182 -0.1804236667,0.03601748 -0.2690608323,0.06063342 a 2.80179405052,2.80179405052 0 0 0 -0.00401251,8.9167e-4 c -0.090063504,0.02497106 -0.178821138,0.05443295 -0.2659399942,0.08827513 -0.087006285,0.03383902 -0.1722669387,0.07200545 -0.2554628946,0.114356427 -0.083265286,0.04236111 -0.1643597696,0.08886025 -0.242979542,0.139323132 -0.0786097,0.05048516 -0.1546450851,0.104870545 -0.2278211853,0.162952335 -0.07318126,0.05805298 -0.1434135276,0.119729412 -0.2104336584,0.184798202 -0.066979746,0.06506444 -0.130664884,0.133436681 -0.1908169615,0.204860733 -0.06022812,0.07143064 -0.11684548,0.145829279 -0.1696398454,0.222917011 -0.052692636,0.07709472 -0.1014980715,0.156775549 -0.1462335592,0.238744119 -0.044829275,0.08202725 -0.085525374,0.166246598 -0.1219356051,0.252342056 -0.036390302,0.0860244 -0.068456089,0.17381471 -0.096077232,0.263042073 -0.027541033,0.08922198 -0.050604576,0.179764974 -0.069104273,0.271290003 -0.018582662,0.09160507 -0.032569618,0.184082665 -0.041908398,0.277085844 -0.0093354,0.09288715 -0.014022505,0.186182844 -0.014043771,0.279537933 a 2.80179405052,2.80179405052 0 0 0 0.00691042,0.198173222 c 0.00647014,0.09076593 0.017502057,0.181140729 0.032768801,0.270844168 a 2.80179405052,2.80179405052 0 0 0 0.00111458,0.0073562 c 0.015872274,0.09198883 0.036331847,0.183126939 0.061302178,0.273073339 0.024254487,0.08747901 0.05297336,0.173650861 0.085600133,0.258360815 a 2.80179405052,2.80179405052 0 0 0 0.002675,0.0075792 c 0.033839024,0.08700628 0.072005442,0.172266939 0.1143564268,0.255462895 0.042361112,0.08326529 0.088860244,0.164359769 0.1393231318,0.242979542 0.049225022,0.07664757 0.1022649187,0.15075967 0.1587169119,0.22224826 a 2.80179405052,2.80179405052 0 0 0 0.00423542,0.0055729 c 0.058052982,0.07318126 0.1197294113,0.143413528 0.1847982021,0.210433658 0.063815489,0.06562661 0.1309199595,0.127960556 0.2008482269,0.187027373 a 2.80179405052,2.80179405052 0 0 0 0.00401251,0.0037896 c 4.26375e-5,3.5872e-5 1.802773e-4,-3.5869e-5 2.22917e-4,0 0.070090431,0.05909809 0.1431393207,0.114574501 0.2186815878,0.166519007 a 2.80179405052,2.80179405052 0 0 0 0.00401251,0.0031209 c 4.96974e-5,3.4041e-5 1.732175e-4,-3.4037e-5 2.22917e-4,0 0.077094725,0.05269264 0.1567755485,0.101498071 0.2387441189,0.14623356 0.08195452,0.04482258 0.1660993235,0.0855186 0.2521191394,0.121935604 0.08602439,0.0363903 0.1738147094,0.06845609 0.263042073,0.09607723 0.088636686,0.02742086 0.1785885887,0.05038509 0.2695066664,0.06888135 a 2.80179405052,2.80179405052 0 0 0 0.00178334,4.45835e-4 c 7.10125e-5,1.4398e-5 1.519033e-4,-1.4393e-5 2.22917e-4,0 0.091535265,0.01850051 0.1839382501,0.03241304 0.2768629277,0.04168548 0.092813426,0.009328 0.1860342142,0.01401513 0.2793150148,0.01404377 1.484518e-4,4.6e-8 2.97382e-4,-2.1e-8 4.458346e-4,0 a 2.80179405052,2.80179405052 0 0 0 0.1981732229,-0.0069104 c 0.093166031,-0.006654 0.1859410512,-0.01796252 0.2779775127,-0.03388339 0.091992791,-0.01585276 0.1831211432,-0.03635084 0.2730733386,-0.06130218 a 2.80179405052,2.80179405052 0 0 0 2.22917e-4,0 c 0.089988215,-0.02497816 0.1786712835,-0.05443998 0.2657170771,-0.08827514 0.087019341,-0.03380789 0.1722509538,-0.07203508 0.2554628946,-0.114356427 a 2.80179405052,2.80179405052 0 0 0 2.22917e-4,0 c 0.083208684,-0.04233232 0.1641869342,-0.08889993 0.2427566251,-0.139323131 a 2.80179405052,2.80179405052 0 0 0 2.229169e-4,0 c 0.078559829,-0.05045313 0.1544649662,-0.10491208 0.2275982684,-0.162952335 a 2.80179405052,2.80179405052 0 0 0 2.22917e-4,0 c 0.073105209,-0.05805884 0.143262973,-0.11973518 0.2102107413,-0.184798203 0.06698624,-0.06505822 0.1306579066,-0.133442301 0.1908169615,-0.204860732 a 2.80179405052,2.80179405052 0 0 0 2.22917e-4,-2.22917e-4 2.80179405052,2.80179405052 0 0 0 0.1192606008,-0.157156493 2.80179405052,2.80179405052 0 0 0 0.050156327,-0.06576052 c 0.052768527,-0.07708995 0.1016484122,-0.156770859 0.1464564763,-0.238744119 0.044746876,-0.08195897 0.085368472,-0.166103706 0.1217126879,-0.25211914 0.036390302,-0.08602439 0.068456089,-0.173814708 0.096077232,-0.263042073 0.027623369,-0.08929129 0.050761362,-0.179908905 0.06932719,-0.271512918 0.01857532,-0.09153145 0.032562251,-0.183934467 0.041908398,-0.276862929 0.00932798,-0.09281344 0.014015134,-0.186034202 0.014043772,-0.279315014 2.28e-8,-7.422e-5 -1.69e-8,-1.48697e-4 0,-2.22917e-4 a 2.80179405052,2.80179405052 0 0 0 0,-2.22917e-4 2.80179405052,2.80179405052 0 0 0 -0.00713335,-0.198173223 c -0.00658012,-0.09316227 -0.017814307,-0.185937271 -0.033660469,-0.277977512 -0.015926163,-0.09199666 -0.036498761,-0.18312505 -0.061525095,-0.273073339 a 2.80179405052,2.80179405052 0 0 0 0,-2.22917e-4 c -0.024978161,-0.08998822 -0.054439987,-0.178671284 -0.088275136,-0.265717077 -0.033832174,-0.08708185 -0.071998663,-0.172417061 -0.1143564266,-0.255685812 -0.042361112,-0.08326529 -0.088860243,-0.164359769 -0.1393231319,-0.242979542 -0.050485157,-0.0786097 -0.1048705455,-0.154645086 -0.1629523351,-0.227821185 -0.058058842,-0.0731052 -0.1197351787,-0.143262973 -0.1847982022,-0.210210742 -0.065058946,-0.06705581 -0.1334312833,-0.13081544 -0.2048607331,-0.191039878 -0.07143577,-0.0601521 -0.1458343123,-0.116694995 -0.222917011,-0.169416929 -0.077089951,-0.05276853 -0.1567708586,-0.101648411 -0.2387441188,-0.146456476 -0.082031704,-0.04475357 -0.1662509834,-0.08537524 -0.2523420565,-0.121712688 -0.08602439,-0.0363903 -0.1738147095,-0.06845609 -0.263042073,-0.09607723 -0.089218012,-0.02761618 -0.1797610533,-0.05075413 -0.2712900024,-0.06932719 -0.091531453,-0.01857532 -0.1839344657,-0.03256225 -0.2768629277,-0.0419084 -0.09296486,-0.0092684 -0.1863351337,-0.01388107 -0.2797608333,-0.01382083 z" id="path2353" inkscape:connector-curvature="0" />
<path style="fill:#ffffff;stroke-width:0.1763888896;stroke-linejoin:round;paint-order:markers fill stroke" d="m -5.38901931144,214.663293337 -0.50853142052,1.344048544 c -5.33710520244,-0.83402845 -10.17805540744,1.13974018 -11.65757428304,6.165943473 0.4507764234,-0.887842623 1.0294520929,-1.685093865 1.7173106069,-2.366705231 4.6486379162,-3.569601076 8.47147122497,-3.273205263 12.46003686463,-0.747032656 z m 17.73503328924,0 -0.5085314205,1.344048544 c -5.33710520247,-0.83402845 -10.17805540742,1.13974018 -11.657574283033,6.165943473 0.450776423497,-0.887842623 1.029452092833,-1.685093865 1.717310607003,-2.366705231 4.6486379162,-3.569601076 8.47147122493,-3.273205263 12.46003686453,-0.747032656 z m -21.81548940719,4.17809415 a 8.04603623289,8.04603623289 0 0 0 -8.04598413481,8.045984135 8.04603623289,8.04603623289 0 0 0 8.04598413481,8.045984135 8.04603623289,8.04603623289 0 0 0 8.04598413484,-8.045984135 8.04603623289,8.04603623289 0 0 0 -8.04598413484,-8.045984135 z m 17.7350332893,0 a 8.04603623289,8.04603623289 0 0 0 -8.045984134841,8.045984135 8.04603623289,8.04603623289 0 0 0 8.045984134841,8.045984135 8.04603623289,8.04603623289 0 0 0 8.04598413489,-8.045984135 8.04603623289,8.04603623289 0 0 0 -8.04598413489,-8.045984135 z m -17.7350332893,1.46762168 a 6.85787131928,6.57830354596 0 0 1 6.82805138281,6.011858452 c -0.69887233882,0.200216797 -1.43000126027,0.535027979 -2.25228566133,1.249461701 0.70423681385,0.480117019 1.39723508966,0.736623367 2.08345322968,0.856366912 a 6.85787131928,6.57830354596 0 0 1 -6.65921895116,5.039037845 6.85787131928,6.57830354596 0 0 1 -6.85805473661,-6.578362455 6.85787131928,6.57830354596 0 0 1 6.85805473661,-6.578362455 z m 17.7350332893,0 a 6.85787131928,6.57830354596 0 0 1 6.85805473659,6.578362455 6.85787131928,6.57830354596 0 0 1 -6.85805473659,6.578362455 6.85787131928,6.57830354596 0 0 1 -6.66176160832,-5.047682879 c 0.66877268661,-0.123668233 1.34408489267,-0.380056622 2.03005743058,-0.847721878 -0.80105237031,-0.69598648 -1.51537024615,-1.031159785 -2.19787279935,-1.233188695 a 6.85787131928,6.57830354596 0 0 1 6.82957697709,-6.028131458 z m -19.90188567201,1.630860265 a 2.43119035955,2.43119035955 0 0 0 -2.4307801898,2.431288721 2.43119035955,2.43119035955 0 0 0 2.4307801898,2.431288722 2.43119035955,2.43119035955 0 0 0 2.43128872132,-2.431288722 2.43119035955,2.43119035955 0 0 0 -2.43128872132,-2.431288721 z m 17.7350332893,0 a 2.43119035955,2.43119035955 0 0 0 -2.43078018984,2.431288721 2.43119035955,2.43119035955 0 0 0 2.43078018984,2.431288722 2.43119035955,2.43119035955 0 0 0 2.43128872133,-2.431288722 2.43119035955,2.43119035955 0 0 0 -2.43128872133,-2.431288721 z m -17.7350332893,0.560401626 a 1.95092050881,1.87076275958 0 0 1 1.95123506046,1.870887095 1.95092050881,1.87076275958 0 0 1 -1.95123506046,1.870887097 1.95092050881,1.87076275958 0 0 1 -1.9507265289,-1.870887097 1.95092050881,1.87076275958 0 0 1 1.9507265289,-1.870887095 z m 17.7350332893,0 a 1.95092050881,1.87076275958 0 0 1 1.95123506046,1.870887095 1.95092050881,1.87076275958 0 0 1 -1.95123506046,1.870887097 1.95092050881,1.87076275958 0 0 1 -1.95072652888,-1.870887097 1.95092050881,1.87076275958 0 0 1 1.95072652888,-1.870887095 z m -17.7350332893,0.540060369 a 1.25093414024,1.33109188947 0 0 0 -1.2504787629,1.330826726 1.25093414024,1.33109188947 0 0 0 1.2504787629,1.331335259 1.25093414024,1.33109188947 0 0 0 1.2509872945,-1.331335259 1.25093414024,1.33109188947 0 0 0 -1.2509872945,-1.330826726 z m 17.73554182079,0 a 1.25093414024,1.33109188947 0 0 0 -1.25098729443,1.330826726 1.25093414024,1.33109188947 0 0 0 1.25098729443,1.331335259 1.25093414024,1.33109188947 0 0 0 1.25047876294,-1.331335259 1.25093414024,1.33109188947 0 0 0 -1.25047876294,-1.330826726 z" id="path1806" inkscape:connector-curvature="0" />
<path style="fill:#ffffff;stroke-width:0.1763889045;stroke-linejoin:round;paint-order:markers fill stroke" d="m -40.2512024614,217.277588326 c 3.6936599365,1.353325707 6.1946857143,4.06457035 8.5812945885,7.317331642 -3.4299297036,4.693923261 -8.6764854471,6.505823258 -14.2342300406,6.514427328 -5.5530624152,-0.0011223 -10.7990098958,-1.801229149 -14.2347394977,-6.483859905 2.3796567935,-3.256604755 4.8787198131,-5.976831511 8.566010877,-7.338219381 a 21.4931008919,21.4931008919 0 0 0 -11.2126402635,7.435016221 21.4931008919,21.4931008919 0 0 0 0.9506468595,1.090238092 6.01727879187,5.20734582692 0 0 1 0.059097018,0.69999399 6.01727879187,5.20734582692 0 0 1 -1.1141825734,3.007834436 6.01727879187,5.20734582692 0 0 0 2.377126606,-2.370503664 21.4931008919,21.4931008919 0 0 0 0.9807048256,0.872699931 6.58228227826,5.69629916428 0 0 1 0.056040276,0.689804849 6.58228227826,5.69629916428 0 0 1 -1.2186212691,3.290073643 6.58228227826,5.69629916428 0 0 0 2.7011412912,-2.817297499 21.4931008919,21.4931008919 0 0 0 1.1829592753,0.73107087 7.07358965779,6.1214759794 0 0 1 0.041775478,0.567025699 7.07358965779,6.1214759794 0 0 1 -1.3098140815,3.535631943 7.07358965779,6.1214759794 0 0 0 2.9798142988,-3.19735246 21.4931008919,21.4931008919 0 0 0 1.8488196427,0.771827434 7.56489703725,6.5466527945 0 0 1 0.039737651,0.563968958 7.56489703725,6.5466527945 0 0 1 -1.4010068938,3.781190241 7.56489703725,6.5466527945 0 0 0 3.3023006129,-3.740433678 21.4931008919,21.4931008919 0 0 0 2.0143931847,0.422849353 7.90881220291,6.84427656508 0 0 1 0.00917023,0.294975634 7.90881220291,6.84427656508 0 0 1 -1.4641795682,3.953386726 7.90881220291,6.84427656508 0 0 0 3.4877429798,-4.021144514 21.4931008919,21.4931008919 0 0 0 1.3577030443,0.06928616 21.4931008919,21.4931008919 0 0 0 0.9725535129,-0.04992679 7.71228925112,6.67420583904 0 0 1 0.0035662,0.127364263 7.71228925112,6.67420583904 0 0 1 -1.4280081176,3.855061514 7.71228925112,6.67420583904 0 0 0 3.4841767805,-4.178566742 21.4931008919,21.4931008919 0 0 0 2.6746495245,-0.557855473 6.90163207492,5.97266409408 0 0 1 -1.2598872903,3.146406755 6.90163207492,5.97266409408 0 0 0 3.1245001016,-3.759283588 21.4931008919,21.4931008919 0 0 0 2.2365164595,-0.99038451 6.11554026771,5.29238118989 0 0 1 -1.1172393156,2.810674557 6.11554026771,5.29238118989 0 0 0 2.8692621184,-3.824494091 21.4931008919,21.4931008919 0 0 0 1.4860862215,-1.048462614 5.72249436412,4.95223973781 0 0 1 -1.0352167303,2.448960051 5.72249436412,4.95223973781 0 0 0 2.7159155457,-3.883081652 21.4931008919,21.4931008919 0 0 0 2.1539844176,-2.325161987 21.4931008919,21.4931008919 0 0 0 -11.2279239799,-7.411071742 z" id="path1768" inkscape:connector-curvature="0" />
<path style="fill:#ffffff;stroke-width:0.1763888896;stroke-linejoin:round;paint-order:markers fill stroke" d="m 110.029363907,206.892421066 c 0,0 -9.654681151,18.86158737 -9.654640038,24.200383896 1.31084e-4,5.338674614 4.322455892,9.666324277 9.654640038,9.666283113 5.332184147,4.1164e-5 9.655015175,-4.327608499 9.655146259,-9.666283113 4.1113e-5,-5.338796526 -9.655146259,-24.200383896 -9.655146259,-24.200383896 z m 0,3.206907751 c 0,0 8.384568156,16.379070035 8.384532454,21.015243632 -1.13832e-4,4.636067729 -3.754101001,8.394186393 -8.384532454,8.394150646 -4.630431453,3.5747e-5 -8.3839124,-3.758082917 -8.384026233,-8.394150646 -3.5703e-5,-4.636173597 8.384026233,-21.015243632 8.384026233,-21.015243632 z m 0,1.304530588 c 0,0 -0.08515055,0.16867971 -0.111874761,0.221218419 0.855850503,1.743816352 6.758072929,13.900275238 6.758045538,17.56990596 -9.4074e-5,3.95281228 -3.101973111,7.156977882 -6.928641894,7.156947403 -3.826668783,3.0479e-5 -6.929054041,-3.204135123 -6.929148115,-7.156947403 -4.452e-6,-0.59645721 0.159850198,-1.423907135 0.427756441,-2.393917405 -0.48685444,1.488082767 -0.794772873,2.75828751 -0.794766405,3.598216306 1.02893e-4,4.190512145 3.393211647,7.587773479 7.578629196,7.587741167 4.18541755,3.2312e-5 7.578526303,-3.397229022 7.578629196,-7.587741167 3.2271e-5,-4.190607836 -7.578629196,-18.99542328 -7.578629196,-18.99542328 z m 1.250871201,7.951713807 a 0.468208096204,0.468208096204 0 0 0 -0.09263837,0.01214929 0.468208096204,0.468208096204 0 0 0 -0.346761139,0.563929792 0.468208096204,0.468208096204 0 0 0 0.563929793,0.347267359 0.468208096204,0.468208096204 0 0 0 0.346761139,-0.563929792 0.468208096204,0.468208096204 0 0 0 -0.471291423,-0.359416649 z m 0.693016055,1.391094317 a 0.660567480316,0.660567480316 0 0 0 -0.130604924,0.01771772 0.660567480316,0.660567480316 0 0 0 -0.48951536,0.795778846 0.660567480316,0.660567480316 0 0 0 0.795778846,0.489515359 0.660567480316,0.660567480316 0 0 0 0.489515358,-0.795778846 0.660567480316,0.660567480316 0 0 0 -0.66517392,-0.507233079 z m 0.391814775,1.81176367 a 0.974042101399,0.974042101399 0 0 0 -0.192363843,0.02632347 0.974042101399,0.974042101399 0 0 0 -0.721870631,1.172913222 0.974042101399,0.974042101399 0 0 0 1.172913221,0.721870632 0.974042101399,0.974042101399 0 0 0 0.721870632,-1.172913222 0.974042101399,0.974042101399 0 0 0 -0.980549379,-0.748194102 z m 2.94417924,3.266641787 c 0.01189297,0.133810151 0.01873104,0.260406149 0.01873016,0.377134377 -9.2716e-5,3.895759986 -3.057479266,7.053708432 -6.828916428,7.053678392 -0.926306441,7.378e-6 -1.809190719,-0.191439064 -2.614629604,-0.536593878 1.056708749,1.10416718 2.52310724,1.788996658 4.144934597,1.78898374 3.219325977,2.5642e-5 5.829051522,-2.695539449 5.829130665,-6.020988287 4.703e-6,-0.630121871 -0.209991033,-1.564477665 -0.54924939,-2.662214344 z" id="path2383" inkscape:connector-curvature="0" />
<path style="fill:#ffffff;stroke-width:0.1763888896;stroke-linejoin:round;paint-order:markers fill stroke" d="m 90.0658209604,208.874203667 c -0.9644653878,0.0014516 -2.0382697345,0.73843408 -2.8507234531,1.675619928 -0.3827557253,0.443305053 -1.3813653416,2.329644275 -1.5883322886,2.690275655 0.2010136668,0.03318116 0.4001705137,0.08448146 0.5963814374,0.149852188 0.2856021901,-0.4794952 1.0062886114,-1.71747715 1.3057827074,-2.0641256 1.0235921143,-1.180735766 2.453600769,-2.057322747 3.2795933532,-1.222026939 0.7615957125,0.770173617 0.7113017257,2.72646784 -0.2568173871,3.843178856 -0.3004919525,0.345765437 -1.4236841053,1.234379368 -1.8577634965,1.585304973 0.092554918,0.185008998 0.1717495188,0.374803288 0.2331034045,0.569135585 0.3275234617,-0.256307468 2.0527123795,-1.512668533 2.4369901379,-1.95463764 1.1177103612,-1.289258432 0.9714204795,-3.725107875 -0.08577398,-4.768528735 -0.3583080443,-0.353639852 -0.774047077,-0.504708094 -1.2124404351,-0.504048271 z m -0.2129212915,1.458157661 c -0.1446900093,0.0054233 -0.2981744534,0.04084355 -0.4561157525,0.100406012 0.052497046,0.0321604 0.1032136013,0.0667181 0.1503567414,0.105956093 0.4963135304,0.413090328 0.7251784737,1.177225331 1.3007371792,1.504071967 0.056678649,-0.602540022 -0.063450496,-1.160057938 -0.3607552688,-1.4652214 -0.1759656179,-0.180616919 -0.3930728838,-0.254251626 -0.6342228993,-0.245212672 z m -0.8486578493,0.291126979 c -0.1190696789,0.07005917 -0.2384187036,0.157615384 -0.3577279518,0.247230884 0.1339365992,0.05529145 0.2524576354,0.130473821 0.360250716,0.220489583 0.6041915425,0.504547627 0.874240903,1.452456047 1.6705743988,1.729102527 0.048754975,-0.14129854 0.087824408,-0.283996569 0.1170562551,-0.427356242 -0.7574931187,-0.631298277 -1.0905888245,-1.280279123 -1.4440301811,-1.590855053 -0.1085828406,-0.09541389 -0.2201496288,-0.157458082 -0.346123237,-0.178611699 z m -0.6907328154,0.519689408 c -0.096283863,0.08596056 -0.1908531193,0.173292198 -0.2835586868,0.267412997 0.1578082121,0.06599061 0.2979697858,0.155641565 0.4253380302,0.262367467 0.664317148,0.556652819 0.9967985404,1.560162887 1.8542316266,1.887027561 0.083082106,-0.121072406 0.1572134786,-0.248434202 0.2214986896,-0.380937382 -0.9182471845,-0.723747546 -1.3143937618,-1.467853491 -1.7195160227,-1.823453904 -0.1542957583,-0.135434812 -0.3111650566,-0.21230277 -0.4979936369,-0.212416739 z m -0.5494580249,0.551980789 c -0.00848772,0.0096806 -0.017806481,0.01802596 -0.026236747,0.02775041 -0.071397283,0.08261352 -0.1736680481,0.22749146 -0.2865860038,0.395569414 0.1806836422,0.05958673 0.3369092766,0.151214333 0.4752887598,0.266908444 0.6397217707,0.534848341 0.9297322229,1.536120437 1.7951989462,1.800244475 0.1493767796,-0.13333292 0.2708613735,-0.247554356 0.354700635,-0.337041287 -0.9400919696,-0.773754969 -1.3827799613,-1.53132641 -1.8143719535,-1.909732438 -0.158467408,-0.138939181 -0.3172092633,-0.224931603 -0.4979936367,-0.243699018 z m -0.5141393272,0.732106147 c -0.081963947,0.127668919 -0.1413593594,0.22229424 -0.2220032424,0.351673318 0.1745073623,0.110808837 0.3342468997,0.242966059 0.4853798163,0.388505674 0.5277181551,0.508187544 0.9600630608,1.162535856 1.6080098487,1.535354242 0.1103566003,-0.09258886 0.1867202629,-0.15620879 0.2986952716,-0.252276411 -0.8805439891,-0.723570751 -1.2840735074,-1.44562661 -1.6882337477,-1.800244475 -0.1514165599,-0.13285576 -0.3037932914,-0.212601449 -0.4818479465,-0.223012348 z m -0.4026331532,0.642800297 c -0.08990087,0.146114641 -0.2060769677,0.332306706 -0.2643856796,0.426851689 0.421568739,0.124728623 0.8196576793,0.339906535 1.1609760471,0.634727453 0.340471717,0.29614811 0.610330601,0.659736746 0.7936615915,1.059560929 0.064263979,-0.05361065 0.1972460752,-0.165555933 0.2901178735,-0.242689908 -0.6860265075,-0.66239862 -1.1346741415,-1.232746406 -1.5146675764,-1.575213916 -0.161125805,-0.145213898 -0.3120546583,-0.248532384 -0.4657022561,-0.303236247 z m -12.025511997,0.153888611 c -1.435767956,0.0049627 -3.2176711086,1.324948866 -3.520769603,2.895628655 -0.1101418514,0.575217231 -0.032073448,2.707796509 -0.031282275,3.123686531 0.190716361,-0.07180954 0.3891800132,-0.127005776 0.5918404621,-0.168520644 0.0077833,-0.558133602 0.01263875,-1.990622609 0.098892353,-2.440522007 0.2800374415,-1.451164062 1.7872114901,-2.698822331 2.8633372738,-2.575742164 1.167117816,0.133487228 1.3612240011,1.799746477 1.0651110105,3.334085057 -0.08756442,0.449660244 -0.6162605203,1.780963218 -0.8168710214,2.301769982 0.1726198866,0.113905368 0.3361142167,0.238828254 0.486388922,0.376396406 0.1557215415,-0.385540025 1.0226066431,-2.335919536 1.1347393002,-2.910765239 0.3418696424,-1.771417052 0.00886915,-3.71635738 -1.5893413943,-3.918861781 -0.092100577,-0.01166978 -0.1863271646,-0.01748564 -0.2820450279,-0.0171548 z m -0.3350230749,1.376420103 c -0.3879231275,0.02318547 -0.8284977466,0.259929466 -1.2124404351,0.624636396 0.6125856508,0.250669837 1.3549774658,-0.04122881 1.9864244665,0.09384682 0.059978961,0.01283041 0.1188724145,0.03156519 0.1765934882,0.05297804 -0.1352973318,-0.429316345 -0.3864286819,-0.725067968 -0.7876069576,-0.767929398 -0.052954335,-0.0056576 -0.1075529722,-0.0068441 -0.162970562,-0.0035319 z m 10.0653242774,0.306263565 c -0.2155923446,0.138947303 -0.4122992414,0.309711525 -0.583263064,0.505561928 -0.8719535275,1.005769091 -0.8767560199,2.429768457 -0.010595609,3.180701 0.8661819695,0.750980296 2.274938235,0.544172731 3.1468959606,-0.461665833 0.1698034514,-0.196849054 0.3110757907,-0.415824083 0.4182742908,-0.648854931 -0.1452438518,-0.04874284 -0.2917313697,-0.10801167 -0.4379518509,-0.175584383 -2.510142e-4,2.90844e-4 -2.53418e-4,7.18313e-4 -5.045528e-4,0.0010091 -0.8428204583,0.972220188 -2.0451651574,1.31026738 -2.6852301271,0.755315578 -0.6400523158,-0.554912733 -0.4759992199,-1.792790123 0.3668099028,-2.764949474 0.00215275,-0.0024701 0.00490455,-0.0046001 0.00706374,-0.0070637 -0.081558338,-0.127440874 -0.1566439575,-0.255578206 -0.2214986904,-0.384469285 z m -11.5199500678,0.577208429 c -0.094671809,0.111551538 -0.1823865877,0.230584097 -0.2633765739,0.356214294 0.7095016236,0.455288656 1.6215708745,0.081808 2.3915803838,0.245212672 0.1373764922,0.02915282 0.2698518916,0.07566206 0.3960739665,0.146824872 -0.00323811,-0.149181599 -0.00827309,-0.297003776 -0.026741299,-0.433915429 -0.094458448,-0.08599086 -0.2120868717,-0.135017947 -0.3541960821,-0.161456904 -0.4625709713,-0.08605985 -1.1789536021,0.05276936 -2.1433403953,-0.152879505 z m 11.9690020809,0.100910565 c -0.00165632,0.0018899 -0.00339422,0.0031508 -0.00504553,0.0050455 -0.091257137,0.105262837 -0.1695461699,0.215590057 -0.2396625912,0.32695023 0.1370596569,0.0793672 0.2589560175,0.179438001 0.3723599838,0.292136085 0.4189630402,0.416355241 0.7298288002,0.989075774 1.2977098622,1.233631654 0.1171916182,-0.09475758 0.2315265178,-0.198676403 0.3370412862,-0.320391043 v -5.04554e-4 c -0.3372351701,-0.15589042 -0.672352946,-0.374618717 -0.9788324777,-0.63977298 -0.3117286524,-0.270846896 -0.5800396244,-0.579067206 -0.7835705333,-0.897094892 z m -12.4241087277,0.591840463 c -0.064479456,0.132408765 -0.1190920755,0.269568943 -0.1629705621,0.409696892 0.7867369122,0.472310324 1.7816023937,0.113641389 2.6297293166,0.292136085 0.1626096877,0.03422248 0.3193467561,0.0892326 0.468729573,0.172557065 0.016739909,-0.131045116 0.027206196,-0.259688024 0.035318698,-0.388505673 -0.1155090586,-0.146842056 -0.2729639747,-0.222688191 -0.474784207,-0.260349258 -0.529903489,-0.09888373 -1.3596275793,0.04940899 -2.4960228185,-0.225535111 z m 12.0214755744,0.03229138 c -0.035105574,0.0774862 -0.065538607,0.155068955 -0.090314956,0.232094299 0.103624485,0.06561334 0.1981305947,0.143670444 0.2855768983,0.231589745 0.3594053592,0.361349433 0.6212120009,0.859957675 1.0903386517,1.097906944 0.065250153,-0.02715668 0.1297623517,-0.0592691 0.1947573899,-0.09485593 -0.5272082972,-0.523257258 -0.8539301489,-0.99075966 -1.146848568,-1.25785019 -0.11160333,-0.101762785 -0.2197445084,-0.172543172 -0.3335094159,-0.208884868 z m -0.1649887733,0.548448919 c -0.052305549,0.383719797 0.037358939,0.727911015 0.2825495812,0.940486463 0.1985083647,0.172111548 0.4692740573,0.226576524 0.7623793164,0.186684544 -0.3891457662,-0.417373136 -0.6428119236,-0.784973076 -0.88094923,-1.003051012 -0.054744222,-0.05013288 -0.1092265002,-0.0909545 -0.1639796676,-0.124119995 z M 72.3312937647,216.9475534 c -0.018573526,0.121210386 -0.033350472,0.287060444 -0.045914307,0.486893476 0.7423639223,0.517387635 1.70899593,0.127079804 2.5247823291,0.299704377 0.176464369,0.03734077 0.3450645494,0.103616119 0.5035437179,0.208884868 0.062409181,-0.192628547 0.1128514436,-0.36255831 0.1337064983,-0.469738678 0.00243877,-0.01263675 0.00318136,-0.02518668 0.00555008,-0.03784147 -0.1264431778,-0.130565417 -0.2918496673,-0.202399756 -0.4990027425,-0.24117625 -0.5641891975,-0.105609265 -1.4334517242,0.01450169 -2.6226655758,-0.246726323 z m -0.067610078,0.88801297 c -0.00636646,0.147400329 -0.00949671,0.246545305 -0.014127479,0.390523886 0.6934555818,0.279191589 1.4752315892,0.215333399 2.2008594165,0.316354619 0.2078122073,0.02893137 0.410521366,0.07301143 0.6054633882,0.141779344 0.051916719,-0.143342374 0.089500157,-0.248713646 0.1392565793,-0.392037543 -0.118185657,-0.133581428 -0.2752570474,-0.204185966 -0.4732705485,-0.24117625 -0.5285365432,-0.09873425 -1.3452175152,0.02996139 -2.4581813565,-0.215444056 z m -0.025732194,0.773479479 c -0.00327964,0.120681665 -0.00914921,0.294256426 -0.011604715,0.377910064 0.4276600241,-0.102842274 0.8802288022,-0.115047613 1.3234420562,-0.03027317 0.4426926621,0.08626013 0.8574542626,0.266253541 1.2159723048,0.520698514 0.038323248,-0.104259243 0.1131991583,-0.310796354 0.1725570656,-0.47175689 -0.1379371299,-0.08702554 -0.3120145183,-0.141621234 -0.5257440422,-0.1786117 -0.5040522932,-0.08723699 -1.2299309813,-0.08772891 -2.1746226694,-0.217966818 z m -1.186708241,2.590878749 c -0.1170182032,0.228257826 -0.2023859736,0.474953253 -0.2522764118,0.730087935 -0.2522598326,1.307052588 0.4556238455,2.542725185 1.5812685492,2.759903945 1.1255938313,0.21719131 2.2423013655,-0.666299721 2.4945091596,-1.973306093 0.048388293,-0.255430191 0.06126503,-0.516091227 0.037336909,-0.771461267 -0.1414194679,0.02862819 -0.2888671896,0.04897623 -0.4394655093,0.06357366 -6.033922e-4,0.00322 -3.966333e-4,0.0063676 -0.00100911,0.0095865 -0.2437837176,1.263325185 -1.1158056812,2.157004588 -1.9475738989,1.996515522 -0.8318067565,-0.160474878 -1.3084310116,-1.314388693 -1.0646064577,-2.577760375 7.35173e-5,-3.77125e-4 -7.36329e-5,-6.31973e-4 0,-0.0010091 -0.1434682108,-0.07323505 -0.2801253237,-0.152030807 -0.4081832301,-0.236130727 z m 0.7527928128,0.374882747 v 5.04553e-4 c -0.030524997,0.158164613 -0.04178251,0.311981853 -0.043896096,0.46267494 0.5431332849,0.295470324 1.1852563859,0.186096903 1.7714849635,0.258331045 0.1586790117,0.01955219 0.3130687952,0.05326568 0.4601521751,0.112010727 0.044251254,-0.12393235 0.082587155,-0.25322983 0.1089834099,-0.390019333 4.697845e-4,-0.002469 5.462901e-4,-0.0050983 0.00100911,-0.0075683 -0.3758186112,0.03642568 -0.7841748529,0.01624756 -1.189735558,-0.06155545 -0.3978414938,-0.07719218 -0.7770757203,-0.205500052 -1.1079980045,-0.374378182 z m -0.01261382,0.880444677 c 0.01216914,0.07309369 0.026958526,0.143825871 0.045914307,0.211912187 0.4769294297,0.221896344 1.0306867805,0.119733601 1.5368679005,0.179116251 0.1231580519,0.01444829 0.243124676,0.04028277 0.3587370576,0.08123301 0.045262404,-0.06706776 0.087399179,-0.138455542 0.1266427587,-0.213930397 -0.098859232,-0.06700766 -0.2213741203,-0.108814608 -0.3703417725,-0.133706498 -0.3909862562,-0.06533222 -0.9606573506,-0.03331407 -1.6978202513,-0.124624553 z m 0.2068666576,0.601426966 c 0.1497063032,0.255127587 0.3595979086,0.434601379 0.6175726561,0.484370711 0.3186329894,0.06148 0.6448255078,-0.08105579 0.9142497163,-0.35924161 -0.05990522,-0.022566 -0.1255518463,-0.03989211 -0.1987938125,-0.05196894 -0.3186024373,-0.05253428 -0.7644201538,-0.02500163 -1.3330285599,-0.07316016 z m 9.1783204137,0.154897717 c -1.1289418985,0.02527532 -2.1219725003,1.232257695 -2.6796800461,2.587851432 -0.2217515196,0.542077097 -0.5679406546,2.648324955 -0.6493594839,3.056076453 0.2011209265,-0.03252473 0.406722725,-0.04745202 0.6135362334,-0.04793252 0.1181316561,-0.545462348 0.4066511306,-1.948461338 0.5802357472,-2.372407377 0.594545336,-1.445127546 1.6711436128,-2.731325099 2.7200442719,-2.202373075 0.9671251983,0.487713318 1.5426817018,2.357832877 0.9803461362,3.724608944 -0.1748116315,0.423426551 -0.9570317691,1.62356114 -1.2568410835,2.09439877 0.1466276449,0.145928324 0.2821118559,0.300500035 0.4021286003,0.465197703 0.2289107345,-0.347224727 1.4646141341,-2.086920585 1.6882337477,-2.628215657 0.6492274257,-1.57796309 -0.2646055368,-3.840378317 -1.5989278979,-4.493042894 -0.2713399222,-0.132722019 -0.5391911719,-0.189994548 -0.7997162253,-0.184161779 z m 0.023713982,1.482880748 c -0.2273201858,0.01204681 -0.4541153525,0.121307037 -0.672064361,0.299199825 0.060003161,0.01377872 0.1189085403,0.03078575 0.1760889354,0.05297804 0.6019839575,0.233636587 1.0622901407,0.884973117 1.7119477303,1.011628411 -0.1380501899,-0.589244512 -0.4293206103,-1.079331238 -0.8082936233,-1.273995879 -0.1345815304,-0.06912963 -0.2712865699,-0.09703848 -0.4076786814,-0.0898104 z m -0.8890220751,0.59839965 c -0.031588324,-2.27075e-4 -0.063317136,0.0020531 -0.094855931,0.0070637 -0.090578364,0.10431412 -0.1757683277,0.224707236 -0.2603492569,0.347636895 0.144569707,0.0097856 0.280876968,0.0433262 0.411715104,0.09435138 0.7333614301,0.286001295 1.2912857611,1.099202084 2.1342584437,1.107998 0.00124581,-0.149468301 -0.00730961,-0.297284561 -0.025227641,-0.442492826 -0.9190336195,-0.357366123 -1.4415099589,-0.866532735 -1.8754228452,-1.048460767 -0.099978737,-0.04191841 -0.1953529024,-0.0654152 -0.2901178736,-0.06609638 z m -0.3188773845,0.688714604 c -0.089147122,-0.008325 -0.1763159001,5.94549e-4 -0.2648902324,0.03027317 -0.063916326,0.11213609 -0.1262349649,0.225372003 -0.1841617807,0.344105026 0.1706052683,0.01233027 0.3321795661,0.05288863 0.4868934748,0.113524385 0.8069446018,0.316259457 1.4414013183,1.161862322 2.3582798974,1.198817509 0.040225458,-0.141219957 0.070033461,-0.28582378 0.088801297,-0.431897217 -1.10085301,-0.393841407 -1.7127045399,-0.972996594 -2.2099413672,-1.181158161 -0.094689364,-0.03964045 -0.1858341665,-0.06533973 -0.2749812889,-0.07366471 z m -0.4768024183,0.711924034 c -0.044636165,0.0013987 -0.088862955,0.0067127 -0.1332019454,0.01665024 -0.00496511,0.01187865 -0.011249023,0.02291216 -0.016145691,0.03481415 -0.041389319,0.101042014 -0.092267395,0.270929479 -0.1458157659,0.466206808 0.1902527629,-0.0010216 0.3673235754,0.03628685 0.5353305458,0.101919671 0.7766882275,0.30341735 1.3705038488,1.159818879 2.2750286815,1.134739301 0.099170046,-0.173943645 0.1775659177,-0.320883663 0.2285624291,-0.432401771 -1.1374784962,-0.434295217 -1.7979134477,-1.01126639 -2.3275021752,-1.232622547 -0.1458366218,-0.0609564 -0.2823475816,-0.09350211 -0.4162560789,-0.08930585 z m -0.2593401514,0.852694271 c -0.043057257,0.0028035 -0.085633864,0.009995 -0.12866097,0.02169577 -0.037065863,0.147117514 -0.063622227,0.255828236 -0.098892353,0.404146812 0.2007010627,0.04950254 0.3946755559,0.124063493 0.5842721697,0.213930397 0.6620236518,0.313792472 1.2802524497,0.796317789 2.013165766,0.943513781 0.07514749,-0.122898862 0.1267511975,-0.207302144 0.2023256823,-0.334013969 -1.0650543323,-0.405674276 -1.677096907,-0.961512576 -2.1731090111,-1.169048893 -0.1393712901,-0.05831428 -0.2699295116,-0.08863467 -0.3991012839,-0.0802239 z m -0.3057590105,0.759351997 c -0.038718967,0.167130178 -0.089349703,0.380724643 -0.114533491,0.488911686 0.4393442875,-0.01593824 0.8848451034,0.06124332 1.3022508376,0.232094299 0.4170255443,0.172378623 0.7887781934,0.431104783 1.0898340989,0.751783707 0.04385825,-0.07127703 0.1342936035,-0.219726728 0.1977847069,-0.322409255 -0.8611825576,-0.409596021 -1.4682480381,-0.807414002 -1.9374828425,-1.011123857 -0.198966141,-0.0863775 -0.3747847164,-0.136301794 -0.5378533099,-0.13925658 z m -1.5908550528,2.471299729 c -0.1601550197,0.200341665 -0.2928062213,0.425424429 -0.3925420967,0.665505175 -0.5064826378,1.230995436 -0.057581251,2.582043779 1.0025464604,3.018234991 1.0601633497,0.436229623 2.3296269198,-0.207922025 2.8360914214,-1.438984653 0.098317992,-0.240658131 0.1627637715,-0.493724538 0.1902164144,-0.748756391 -0.1532045431,2.1624e-5 -0.3106240531,-0.0087184 -0.4707477844,-0.02623674 -1.453899e-4,3.55646e-4 -3.590338e-4,6.53503e-4 -5.045528e-4,0.0010091 -0.4895428668,1.189918568 -1.5213850311,1.892534464 -2.3047972981,1.570168387 -0.7833878327,-0.322333067 -1.0218547136,-1.547846334 -0.5323032288,-2.73770362 0.00125459,-0.0030269 0.00277367,-0.0055547 0.00403642,-0.0085774 -0.1178797136,-0.09485416 -0.2294893911,-0.193113374 -0.3319957554,-0.294658849 z m -6.9794792084,0.178107147 c -0.093752435,-0.0015912 -0.1903575713,0.0045362 -0.2901178736,0.01816391 -1.4717230067,0.201043791 -3.0492546267,2.062486926 -2.9279200352,3.764468616 0.042488315,0.584123988 0.6696159812,2.62378459 0.778020454,3.025298731 0.1656321824,-0.118723716 0.3427521309,-0.223297399 0.5277622535,-0.315850068 -0.1369375091,-0.541130129 -0.5027071504,-1.926109464 -0.5358350987,-2.383002985 -0.1050934995,-1.47419587 1.0276265682,-3.069502535 2.0989397461,-3.229138072 1.1618982772,-0.173133559 1.780980227,1.386377889 1.8920730883,2.945074832 0.0317999,0.457001782 -0.1342635764,1.879484853 -0.1932437313,2.434467373 0.1962188863,0.06534682 0.3863578966,0.143657708 0.5671173736,0.237644381 0.050630357,-0.412706768 0.3830605543,-2.520737699 0.3425913672,-3.105018077 -0.120239768,-1.687068612 -0.8531010267,-3.368240985 -2.2593875439,-3.392108641 z m 7.6207658472,0.321904702 c -9.686887e-4,0.0023187 -0.00256952,0.0042373 -0.00353187,0.0065592 -0.053007338,0.128834593 -0.091580983,0.258096913 -0.1226063361,0.38598291 0.1551933644,0.0316152 0.302143414,0.08819213 0.4455201432,0.158934139 0.5296953327,0.261351432 1.0064548055,0.705236833 1.6226418806,0.756324682 0.080936768,-0.127130301 0.1561751904,-0.262241713 0.217462267,-0.41121055 l 5.045528e-4,-5.04554e-4 c -0.3693149868,-0.04044532 -0.756775798,-0.140842909 -1.1317119833,-0.294658848 -0.3817242175,-0.157541793 -0.7341081723,-0.364720004 -1.0282786542,-0.601426979 z m -0.183152675,0.719996879 c -0.00861695,0.08463014 -0.012633124,0.16783896 -0.011604715,0.248744543 0.1191193333,0.02921863 0.233222794,0.0731471 0.3441050257,0.128660969 0.4557273185,0.228162742 0.8630181704,0.617502977 1.3834838422,0.693760132 0.053213117,-0.04651271 0.1041051111,-0.09744716 0.154393164,-0.151870399 -0.6663368181,-0.328240754 -1.125229655,-0.66749878 -1.4879262767,-0.82746663 -0.1381891634,-0.06094851 -0.2630354581,-0.09358696 -0.3824510402,-0.09182861 z m -7.6681938126,0.399605837 c -0.047345802,-7.99333e-4 -0.095485987,0.0027916 -0.1453112132,0.01059561 -0.4209139918,0.0659263 -0.8515728806,0.439954431 -1.1675352338,0.9561276 0.6565904289,0.08357963 1.298141813,-0.3908669 1.9430329237,-0.423824371 0.061255984,-0.0031304 0.1223608996,-1.93868e-4 0.1836572277,0.0055501 -0.2115771292,-0.332211441 -0.482423088,-0.542853592 -0.8138437044,-0.548448939 z m 7.6863577143,0.173061618 c 0.072548026,0.380412324 0.2670178954,0.678255393 0.5671173737,0.801734437 0.2429657858,0.09997792 0.5168919584,0.06501281 0.7820568765,-0.06609642 -0.5017527167,-0.271806869 -0.8592525273,-0.539610337 -1.1544168603,-0.670550702 -0.067853892,-0.03010125 -0.1322955311,-0.05107391 -0.1947573899,-0.06508731 z m -7.0566757905,0.698805661 c -0.4690831758,0.03659474 -1.1247834041,0.356214006 -2.1095353554,0.407174129 -0.062574283,0.132253377 -0.116751178,0.26990845 -0.1624660091,0.412219656 0.8031633173,0.256142532 1.5873521713,-0.340994701 2.3734164821,-0.38245104 0.140240803,-0.0073962 0.2804576029,0.0037903 0.4207970548,0.03985967 -0.041738819,-0.143260273 -0.084973203,-0.284753082 -0.1382474737,-0.412219657 -0.1134959226,-0.05861314 -0.2398548398,-0.07582525 -0.3839646987,-0.06458276 z m 0.2467263307,0.763892975 c -0.047236939,-0.0025401 -0.096661283,-0.0019461 -0.1478339773,0.0020183 -0.5374404589,0.04163476 -1.3004472367,0.399820231 -2.4692815185,0.428365346 -0.028012461,0.144585557 -0.044844253,0.291242058 -0.050959835,0.437951852 0.8821724099,0.252594243 1.7496717587,-0.351497966 2.6150972845,-0.398596731 0.1659263265,-0.00903 0.3321349584,0.0035876 0.4979936369,0.04540975 -0.017747461,-0.130912468 -0.041096587,-0.257941287 -0.066600972,-0.384469252 -0.1121840279,-0.08395694 -0.2367037994,-0.123058749 -0.3784146186,-0.130679265 z m 0.094351378,0.794670696 c -0.04871859,-0.0016395 -0.09933775,-5.08119e-4 -0.1518703999,0.0035319 -0.5722986074,0.04401218 -1.3806302237,0.38501031 -2.5969333829,0.440474615 0.013430908,0.121887422 0.042152694,0.286076855 0.081737557,0.4823525 0.8509782586,0.307620156 1.6830327001,-0.319888615 2.5157003784,-0.364287139 0.1801159963,-0.009604 0.3605559463,0.01098215 0.5408806269,0.07164651 0.010426702,-0.202217574 0.015164178,-0.379481162 0.00756829,-0.488407133 -9.149659e-4,-0.01283734 -0.00355368,-0.02550936 -0.00454098,-0.03834602 -0.1169456607,-0.07004296 -0.2463863263,-0.102046665 -0.3925420895,-0.106965233 z m -0.00908195,0.88801297 c -0.046516766,-0.0019267 -0.095101177,-8.52634e-4 -0.1453112132,0.0030273 -0.536081402,0.04142536 -1.2913702744,0.377352581 -2.4299263982,0.428365347 0.032000483,0.144025547 0.054496218,0.240161669 0.087287639,0.380432829 0.7420867577,0.09019885 1.4808742814,-0.173653832 2.207923156,-0.263881127 0.2082191685,-0.02584019 0.4150065471,-0.0361521 0.6211045258,-0.02018211 0.013047963,-0.151895137 0.022334426,-0.262919705 0.033300487,-0.414237868 -0.1115489965,-0.07383079 -0.234827898,-0.107744246 -0.3743781964,-0.113524371 z m 0.056509916,0.82544842 c -0.09206841,-0.0055277 -0.191694028,-0.0022253 -0.2997043772,0.0075683 -0.5094557218,0.04619387 -1.2107531685,0.233473837 -2.1569633208,0.352177871 0.028066822,0.117418375 0.067503773,0.286380267 0.086783086,0.367819008 0.3864703224,-0.210024569 0.8204116413,-0.339029223 1.2704640098,-0.371855431 0.4499340381,-0.03125641 0.8971575368,0.03521454 1.3093145771,0.188198204 0.010033139,-0.110625479 0.028724965,-0.329172955 0.044400649,-0.500011849 -0.077880452,-0.02417973 -0.1622262137,-0.03836839 -0.2542946239,-0.0438961 z m 0.9899326398,2.88957402 c -0.1291911926,0.06425476 -0.26598997,0.122506628 -0.4076786814,0.175584382 2.505473e-4,0.0032663 7.675811e-4,0.0063189 0.00100911,0.0095865 0.091495629,1.28337429 -0.5193468058,2.372192241 -1.3643108349,2.432449163 -0.8449975838,0.0602806 -1.6043338215,-0.93105257 -1.69580204,-2.214482344 -2.6595e-5,-3.83304e-4 2.6467e-5,-6.25796e-4 0,-0.0010091 -0.1575342758,-0.03360734 -0.3101500765,-0.07451593 -0.4556111997,-0.122606337 -0.053953432,0.250766669 -0.072334956,0.511098386 -0.054491705,0.770452162 0.094625815,1.327805499 1.0982289057,2.337919942 2.2417281952,2.256360227 1.143453399,-0.08153442 1.9932963941,-1.22377624 1.8986322751,-2.551523629 -0.019370696,-0.25925043 -0.074267693,-0.514335562 -0.1634751193,-0.754811024 z m -0.7659111861,0.27346763 c -0.3535852506,0.132453497 -0.7531340094,0.218425095 -1.1650124696,0.248239989 -0.4042641798,0.02840704 -0.8036754238,0.0022964 -1.167030681,-0.07517837 v 5.04553e-4 c 0.011451132,0.160675734 0.04074046,0.312533135 0.077701135,0.458638516 0.6010998148,0.144829181 1.1930952553,-0.126930572 1.7780441503,-0.208884869 0.1583326349,-0.02218319 0.3154900233,-0.02927102 0.4727659957,-0.01059561 0.010667378,-0.131162526 0.014447878,-0.266195551 0.00454098,-0.405155917 -1.852549e-4,-0.0025064 -8.168673e-4,-0.0050627 -0.00100911,-0.0075683 z m -0.2341125102,0.704355742 c -0.065138172,-0.0051911 -0.1347268766,-0.0032196 -0.2098939746,0.0040364 -0.3945729463,0.03808861 -0.93641048,0.216284743 -1.6720880573,0.318877384 0.030672526,0.06745349 0.06296044,0.131878968 0.098892353,0.192739179 0.5181094541,0.09089699 1.0265104888,-0.151380482 1.5308132668,-0.225030559 0.1227010389,-0.01791966 0.2450427697,-0.02375967 0.3673144556,-0.01412748 0.026361711,-0.07649726 0.048733469,-0.156602494 0.067105526,-0.239662591 -0.056416772,-0.01956888 -0.1170053971,-0.03164132 -0.1821435695,-0.03683233 z m -0.015136585,0.574685666 c -0.063704505,-0.0062925 -0.1314809754,-0.0062821 -0.2053529992,0.0010091 -0.3213431933,0.03171616 -0.744589373,0.173827612 -1.3062872602,0.274476735 0.2106370631,0.207687483 0.4599493684,0.326472517 0.7220150905,0.307777223 0.3236880281,-0.02308317 0.6013811546,-0.244824084 0.7896251689,-0.583263058 z" id="path2410" inkscape:connector-curvature="0" />
</g>
</svg>
